<svg  width="54" height="54"  viewBox="0 0 410 208" fill="none" xmlns="http://www.w3.org/2000/svg">
<path fill-rule="evenodd" clip-rule="evenodd" d="M21.279 23.821C20.984 23.876 20.536 24.048 20.284 24.203C20.032 24.358 19.362 24.608 18.796 24.758C17.628 25.069 17.362 25.675 17.637 27.397C17.79 28.356 17.808 28.37 18.499 28.097C18.801 27.978 19.107 28.051 19.463 28.329C19.931 28.694 20.033 28.703 20.452 28.409C21.449 27.711 21.607 28.873 20.708 30.297C20.057 31.327 19.895 31.366 19.314 30.627C18.732 29.886 18.468 30.247 18.346 31.951C18.225 33.648 17.796 34.528 16.983 34.744C15.914 35.027 15.514 35.555 15.513 36.684C15.509 39.122 15.238 40.741 14.816 40.852C14.491 40.937 14.409 41.175 14.409 42.028C14.409 43.07 14.136 43.995 13.631 44.666C13.494 44.848 13.258 45.891 13.107 46.983C12.957 48.075 12.684 49.283 12.501 49.669C12.318 50.054 12.137 51.007 12.099 51.786C12.056 52.662 11.855 53.545 11.572 54.098C11.321 54.591 11.052 55.531 10.975 56.187C10.898 56.843 10.599 58.086 10.312 58.95C10.024 59.814 9.71801 61.058 9.63101 61.714C9.54501 62.371 9.34001 63.228 9.17701 63.619C9.01401 64.011 8.88101 64.894 8.88101 65.583C8.88101 66.338 8.67301 67.414 8.35801 68.298C8.07001 69.103 7.71101 70.459 7.56001 71.31C7.40801 72.161 7.10401 73.505 6.88301 74.295C6.66201 75.086 6.36001 76.379 6.21201 77.17C6.06401 77.96 5.85601 78.777 5.75001 78.985C5.64501 79.193 5.40201 80.184 5.21201 81.188C5.02101 82.192 4.77401 83.185 4.66201 83.394C4.54901 83.604 4.35101 84.543 4.22001 85.481C4.09001 86.419 3.80101 87.648 3.57901 88.212C3.35701 88.776 3.10101 89.83 3.01101 90.555C2.92101 91.281 2.66201 92.412 2.43701 93.069C2.21101 93.727 2.02401 94.523 2.02101 94.838C2.01901 95.154 1.86601 96.059 1.68101 96.849C0.14201 103.439 0.211009 103.931 2.67001 103.911C14.277 103.811 14.119 103.865 14.825 99.775C15.083 98.283 15.384 96.89 15.494 96.679C15.604 96.469 15.85 95.684 16.041 94.935C16.645 92.57 17.12 91.988 18.466 91.964C22.334 91.893 28.281 92.057 28.629 92.243C29.212 92.555 29.598 93.621 29.775 95.412C29.859 96.263 30.108 97.706 30.329 98.618C30.549 99.53 30.796 100.851 30.877 101.554C31.146 103.869 30.941 103.809 38.782 103.874C47.109 103.943 47.443 103.832 46.684 101.27C46.424 100.393 45.922 97.554 45.707 95.744C45.628 95.075 45.422 93.98 45.251 93.311C45.08 92.642 44.79 91.15 44.608 89.994C44.268 87.837 43.803 85.309 43.245 82.587C42.19 77.433 41.384 73.05 41.382 72.448C41.381 72.065 41.231 71.205 41.049 70.536C40.867 69.867 40.568 68.341 40.385 67.143C40.201 65.946 39.965 64.802 39.86 64.601C39.754 64.399 39.55 63.488 39.405 62.576C39.261 61.664 39.009 60.42 38.845 59.812C38.681 59.204 38.432 57.761 38.291 56.606C38.151 55.451 37.848 53.659 37.618 52.626C37.388 51.592 37.134 50.05 37.053 49.198C36.972 48.347 36.732 47.203 36.521 46.656C36.309 46.108 36.067 45.064 35.983 44.334C35.9 43.604 35.645 42.456 35.418 41.782C35.191 41.108 34.94 39.913 34.86 39.128C34.781 38.343 34.531 36.954 34.305 36.042C34.079 35.13 33.794 33.588 33.672 32.615C33.549 31.642 33.305 30.498 33.127 30.072C32.95 29.646 32.697 28.409 32.565 27.324C32.387 25.86 32.181 25.131 31.766 24.504L31.207 23.659L26.512 23.69C23.929 23.706 21.574 23.765 21.279 23.821ZM144.978 24.145C143.519 24.247 135.708 24.379 127.62 24.439C105.815 24.6 103.573 24.637 103.371 24.839C103.131 25.079 103.13 38.159 103.371 38.4C103.472 38.502 106.656 38.64 110.446 38.707C117.918 38.839 117.925 38.84 118.402 39.873C118.75 40.628 118.743 39.774 118.766 83.927C118.775 100.176 118.825 103.245 119.09 103.607C119.52 104.195 136.416 104.406 136.895 103.829C137.106 103.575 137.155 101.629 137.104 95.475C136.892 69.745 137.119 41.281 137.546 39.986C137.974 38.688 138.086 38.668 144.965 38.689C153.667 38.714 153.002 39.372 153.037 30.704C153.066 23.666 153.227 24.062 150.373 24.152C149.352 24.184 148.317 24.154 148.074 24.085C147.83 24.016 146.437 24.043 144.978 24.145ZM58.386 24.195C58.311 24.272 56.694 24.363 54.792 24.396C52.396 24.438 51.249 24.542 51.058 24.733C50.821 24.969 50.64 69.834 50.853 75.29C50.877 75.898 50.893 82.316 50.889 89.551C50.882 101.733 50.909 102.727 51.261 102.984C51.535 103.184 52.849 103.262 55.965 103.265C58.973 103.267 60.694 103.366 61.617 103.589C63.359 104.009 67.026 104.03 67.584 103.623C67.978 103.334 67.998 102.675 68.047 88.286C68.108 70.344 67.821 71.582 71.794 72.084C75.832 72.595 77.798 73.853 79.22 76.836L79.957 78.382L80.114 87.892C80.315 100.022 80.52 102.169 81.587 103.317L82.153 103.925H90.172H98.192L98.337 103.153C98.416 102.728 98.402 102.205 98.306 101.992C98.21 101.778 98.064 95.931 97.983 88.999L97.835 76.396L97.243 74.231C96.246 70.586 94.923 68.603 91.91 66.233C88.746 63.745 88.747 63.8 91.769 61.251C92.272 60.827 92.684 60.404 92.684 60.313C92.684 60.221 93.181 59.529 93.789 58.774C94.397 58.019 94.895 57.286 94.895 57.144C94.895 57.003 95.088 56.641 95.323 56.342C95.559 56.042 95.821 55.506 95.906 55.151C95.991 54.796 96.214 54.328 96.402 54.112C98.084 52.177 97.522 42.332 95.464 37.7C95.302 37.336 94.804 36.191 94.358 35.158C93.911 34.124 93.476 33.168 93.391 33.033C92.64 31.841 92.164 31.287 90.607 29.795C89.623 28.853 88.732 28.082 88.627 28.082C88.522 28.082 88.14 27.833 87.779 27.529C87.418 27.225 86.976 26.976 86.797 26.976C86.618 26.976 86.005 26.727 85.434 26.423C84.863 26.119 84.214 25.871 83.992 25.871C83.771 25.871 83.123 25.677 82.553 25.441C80.538 24.606 77.236 24.226 72.783 24.319C71.142 24.353 69.201 24.368 68.472 24.352C67.742 24.337 66.399 24.336 65.486 24.351C61.93 24.408 61.349 24.395 59.959 24.227C59.168 24.132 58.46 24.117 58.386 24.195ZM202.712 24.263C202.648 24.327 198.195 24.442 192.816 24.517L183.038 24.655L182.846 25.395C182.586 26.399 182.949 34.411 183.269 34.731C183.45 34.912 183.645 34.908 184.007 34.714C184.403 34.502 184.562 34.514 184.824 34.776C185.11 35.062 185.067 35.13 184.466 35.339C184.09 35.47 183.784 35.734 183.784 35.928C183.784 36.121 183.645 36.499 183.475 36.768C182.73 37.953 182.682 39.89 182.691 68.36C182.696 83.877 182.633 97.952 182.551 99.64C182.363 103.475 182.437 103.615 184.818 103.945C186.449 104.171 199.787 104.137 200.017 103.907C200.402 103.521 200.46 100.988 200.257 93.311C200.018 84.239 200.213 73.308 200.634 72.231C201.01 71.27 201.334 71.233 209.395 71.224C215.133 71.217 217.044 71.147 217.4 70.931C218.748 70.112 217.676 56.859 216.304 57.385C216.119 57.457 213.726 57.499 210.987 57.481C208.247 57.462 204.861 57.464 203.461 57.486L200.915 57.527L200.274 56.807L199.633 56.088L199.894 49.99C200.037 46.636 200.152 42.867 200.15 41.615C200.146 39.194 200.531 38.31 201.629 38.221C202.484 38.151 205.032 38.092 213.966 37.936C219.074 37.846 223.569 37.677 223.954 37.56L224.655 37.346L224.68 31.065L224.705 24.784L224.033 24.436C223.371 24.094 203.047 23.929 202.712 24.263ZM166.868 24.558C166.139 24.648 164.547 24.678 163.331 24.625C162.114 24.573 160.029 24.608 158.696 24.703L156.273 24.876L155.983 25.871C155.497 27.541 155.363 33.259 155.774 34.807C156.011 35.698 156.053 36.241 155.908 36.512C155.432 37.402 155.443 44.904 155.923 46.27C156.471 47.83 156.473 48.498 155.931 49.691C155.539 50.556 155.522 50.908 155.703 54.445C155.914 58.559 156.052 70.536 155.911 72.526C155.807 73.995 155.806 74.665 155.894 89.221C155.967 101.339 156.075 103.593 156.6 103.958C156.936 104.192 173.076 104.037 173.984 103.791C174.249 103.719 174.524 103.511 174.594 103.329C174.783 102.834 174.952 27.302 174.767 25.76L174.608 24.433L171.401 24.415C169.638 24.405 167.598 24.469 166.868 24.558ZM245.659 24.725C244.837 25.061 244.398 26.001 244.137 27.989C243.994 29.074 243.749 30.359 243.591 30.846C243.433 31.332 243.189 32.477 243.048 33.389C242.907 34.301 242.656 35.495 242.492 36.042C242.327 36.589 242.081 37.719 241.944 38.553C241.807 39.387 241.561 40.481 241.396 40.985C241.232 41.489 241.032 42.399 240.951 43.007C240.814 44.047 240.142 47.164 239.354 50.415C239.162 51.205 238.874 52.683 238.713 53.699C238.552 54.715 238.275 56.008 238.097 56.573C237.92 57.139 237.713 58.148 237.638 58.817C237.563 59.486 237.313 60.73 237.084 61.581C236.632 63.255 235.78 67.844 235.524 69.983C235.436 70.713 235.15 72.023 234.889 72.893C234.627 73.764 234.279 75.379 234.114 76.483C233.95 77.586 233.702 78.627 233.563 78.794C233.424 78.962 233.206 79.685 233.079 80.401C232.952 81.117 232.654 82.275 232.417 82.975C232.181 83.675 231.986 84.57 231.984 84.965C231.982 85.36 231.827 86.28 231.64 87.009C231.453 87.739 231.107 89.232 230.871 90.326C230.636 91.421 230.343 92.544 230.221 92.823C230.098 93.101 229.888 94.047 229.753 94.923C229.618 95.8 229.356 96.965 229.171 97.512C228.765 98.713 228.024 101.919 227.863 103.175C227.753 104.034 227.78 104.089 228.374 104.195C229.243 104.35 240.984 104.287 241.146 104.126C241.411 103.862 242.181 100.65 242.518 98.397C242.709 97.12 242.99 95.876 243.142 95.633C243.294 95.39 243.541 94.677 243.691 94.048C244.13 92.204 243.998 92.244 249.787 92.204C252.584 92.185 255.094 92.177 255.365 92.187C256.354 92.224 256.91 93.774 257.634 98.507C258.167 101.99 258.499 103.492 258.826 103.902C259.25 104.435 273.092 104.11 273.512 103.558C273.903 103.044 273.726 99.451 273.254 98.321C273.08 97.905 272.819 96.632 272.674 95.493C272.528 94.354 272.225 92.725 272 91.874C271.775 91.023 271.522 89.829 271.438 89.221C271.354 88.612 271.05 87.391 270.763 86.505C270.476 85.62 270.239 84.376 270.237 83.741C270.235 83.106 270.079 82.143 269.89 81.6C269.701 81.057 269.444 79.813 269.318 78.836C269.192 77.859 268.858 76.064 268.577 74.848C268.296 73.632 267.995 72.092 267.909 71.425C267.823 70.759 267.61 69.813 267.436 69.325C267.263 68.836 266.988 67.49 266.827 66.335C266.419 63.422 265.598 58.321 264.921 54.505C264.791 53.776 264.496 52.532 264.264 51.741C264.032 50.951 263.735 49.657 263.603 48.867C263.472 48.076 263.227 46.982 263.059 46.434C262.891 45.887 262.649 44.615 262.521 43.608C262.392 42.6 262.195 41.603 262.082 41.391C261.969 41.18 261.759 40.164 261.615 39.133C261.372 37.381 261.277 36.868 260.714 34.273C260.595 33.726 260.396 32.532 260.272 31.62C260.148 30.708 259.913 29.563 259.75 29.077C259.588 28.59 259.349 27.498 259.22 26.65C259.068 25.645 258.852 25.009 258.601 24.826C258.184 24.521 246.385 24.429 245.659 24.725ZM327.776 24.821C327.581 25.056 327.648 25.36 328.069 26.151C328.777 27.48 328.737 28.791 327.97 29.409C327.135 30.081 327.02 37.837 327.832 38.649C327.909 38.726 331.077 38.821 334.872 38.86C342.771 38.942 342.582 38.92 343.211 39.804C343.629 40.391 343.654 40.56 343.424 41.258C342.989 42.573 343.311 91.409 343.758 92.047C344.185 92.655 344.187 93.917 343.765 94.929C342.981 96.804 343.231 103.463 344.102 103.929C344.55 104.169 356.9 104.234 359.062 104.008C361.304 103.773 361.234 104.145 361.21 92.654C361.188 82.167 361.246 82.689 359.945 81.216L359.516 80.73L360.318 79.974C361.092 79.244 361.12 79.162 361.146 77.586C361.234 72.118 361.302 66.882 361.449 54.242C361.614 40.149 361.619 40.046 362.086 39.617C362.813 38.95 363.611 38.873 369.844 38.859C373.688 38.851 375.761 38.765 375.98 38.605C376.566 38.177 376.644 37.418 376.706 31.605L376.767 25.899L376.255 25.418C375.694 24.891 377.159 24.899 357.25 25.316C355.304 25.357 352.966 25.511 352.054 25.659C349.401 26.089 344.422 25.817 343.065 25.167C341.724 24.526 328.274 24.221 327.776 24.821ZM296.553 24.985C292.887 25.891 290.109 27.16 287.594 29.077C285.48 30.688 281.96 34.598 281.96 35.336C281.96 35.451 281.823 35.659 281.656 35.797C280.692 36.598 279.899 40.325 280.338 41.994C280.549 42.793 280.614 43.657 280.524 44.444C280.314 46.289 280.24 46.434 279.517 46.434C278.589 46.434 278.629 45.576 278.578 66.556L278.532 85.683L279.129 87.562C279.458 88.596 279.794 89.74 279.878 90.105C279.961 90.47 280.152 90.918 280.303 91.1C280.454 91.282 280.7 91.814 280.85 92.282C281.701 94.929 285.828 99.475 289.075 101.34C289.644 101.667 290.234 101.935 290.387 101.935C290.54 101.935 291.069 102.129 291.564 102.366C295.397 104.205 305.996 104.336 309.71 102.591C310.196 102.362 310.967 102.064 311.423 101.927C311.879 101.791 312.253 101.604 312.253 101.511C312.253 101.418 312.508 101.226 312.819 101.084C313.651 100.705 316.531 98.535 317.325 97.69C319.482 95.391 321.14 93.095 321.542 91.847C321.694 91.375 321.895 90.89 321.989 90.768C322.165 90.541 322.459 89.537 323.028 87.231C323.586 84.964 323.699 71.722 323.161 71.566C322.537 71.385 308.994 71.289 308.818 71.465C308.733 71.55 308.627 74.458 308.582 77.929C308.475 86.253 308.003 87.705 304.863 89.376C301.924 90.94 297.42 88.939 296.862 85.822C296.783 85.38 296.577 84.857 296.404 84.658C295.846 84.018 296.032 64.308 296.754 47.537C296.952 42.947 297.049 42.61 298.648 40.988C300.453 39.157 302.643 38.689 304.784 39.676C307.925 41.124 308.702 43.082 308.71 49.572C308.713 51.566 308.803 52.875 308.943 52.962C309.408 53.249 322.52 53.371 323.039 53.094C324.343 52.396 322.666 40.246 320.84 37.168C320.108 35.934 318.805 33.976 318.499 33.651C318.347 33.489 318.223 33.269 318.223 33.162C318.223 32.812 315.304 29.715 314.114 28.801C313.759 28.529 313.082 28.007 312.609 27.641C312.136 27.275 311.629 26.976 311.481 26.976C311.334 26.976 310.759 26.735 310.203 26.439C307.589 25.05 299.695 24.209 296.553 24.985ZM70.229 26.115C70.361 26.239 70.349 26.313 70.198 26.313C70.064 26.313 69.647 26.602 69.269 26.954C68.013 28.127 68.394 29.397 70.231 30.164C70.897 30.443 71.527 31.439 71.207 31.709C70.727 32.114 69.887 32.014 69.558 31.512C69.129 30.856 68.468 30.79 68.108 31.368C67.879 31.734 67.787 31.746 67.277 31.48C66.795 31.228 66.692 31.228 66.637 31.478C66.525 31.993 65.602 32.36 65.098 32.091C64.244 31.634 64.35 30.613 65.306 30.075C65.77 29.815 66.15 29.564 66.15 29.519C66.15 29.474 66.053 29.183 65.935 28.872C65.752 28.39 65.815 28.208 66.361 27.649C66.714 27.289 67.085 26.854 67.184 26.684C67.689 25.827 69.553 25.478 70.229 26.115ZM54.86 26.187C55.192 26.587 55.236 27.807 54.93 28.113C54.186 28.858 53.507 27.69 53.972 26.466C54.226 25.798 54.473 25.721 54.86 26.187ZM55.757 29.519C55.757 29.701 55.658 29.851 55.536 29.851C55.415 29.851 55.315 29.701 55.315 29.519C55.315 29.337 55.415 29.187 55.536 29.187C55.658 29.187 55.757 29.337 55.757 29.519ZM196.513 32.749C196.596 32.883 196.399 33.256 196.076 33.577C195.44 34.212 195.071 34.018 195.064 33.046C195.057 32.116 196.002 31.923 196.513 32.749ZM56.087 33.651C56.21 34.081 56.449 34.597 56.618 34.8C57.071 35.341 56.716 35.526 56.025 35.108C55.532 34.811 55.413 34.562 55.357 33.713C55.275 32.465 55.736 32.427 56.087 33.651ZM70.351 35.593C70.351 36.317 69.213 36.873 68.642 36.428C68.258 36.129 68.695 35.379 69.253 35.379C69.492 35.379 69.688 35.279 69.688 35.158C69.688 35.036 69.837 34.936 70.019 34.936C70.24 34.936 70.351 35.157 70.351 35.593ZM18.677 36.429C17.948 36.969 17.355 36.639 17.61 35.835C17.739 35.43 17.775 35.427 18.398 35.782C18.989 36.117 19.015 36.179 18.677 36.429ZM73.668 39.358C73.972 39.462 74.738 39.662 75.37 39.804C76.002 39.945 76.748 40.255 77.028 40.492C79.583 42.658 79.749 43.126 79.748 48.203V52.294L79.085 53.592C78.068 55.584 76.157 57.048 74.573 57.048C74.212 57.048 73.09 57.246 72.079 57.489C67.766 58.523 67.929 58.892 68.081 48.458C68.207 39.813 68.28 39.25 69.298 39.091C70.088 38.969 73.059 39.15 73.668 39.358ZM17.906 43.947C17.968 44.378 17.878 44.444 17.232 44.444C16.264 44.444 15.826 44.042 16.351 43.635C16.939 43.18 17.823 43.357 17.906 43.947ZM126.736 50.636C126.736 50.757 126.437 50.857 126.072 50.857C125.708 50.857 125.409 50.757 125.409 50.636C125.409 50.514 125.708 50.415 126.072 50.415C126.437 50.415 126.736 50.514 126.736 50.636ZM15.831 52.092C15.999 52.764 15.793 53.572 15.498 53.39C15.235 53.227 15.228 51.52 15.49 51.52C15.599 51.52 15.752 51.777 15.831 52.092ZM198.269 56.615C198.475 57.551 198.034 58.091 197.476 57.586C197.259 57.389 197.124 57.088 197.176 56.917C197.229 56.746 197.319 56.457 197.376 56.274C197.555 55.699 198.115 55.913 198.269 56.615ZM34.872 56.927C35.861 57.916 35.553 58.806 34.088 59.2C32.612 59.597 31.434 58.92 31.434 57.676C31.434 56.425 33.844 55.9 34.872 56.927ZM18.61 59.454C18.61 59.552 18.419 59.806 18.185 60.017C17.642 60.508 17.034 59.715 17.512 59.139C17.777 58.819 18.61 59.058 18.61 59.454ZM251.869 66.888C252.007 68.226 252.312 70.315 252.546 71.531C254.722 82.83 254.72 82.839 250.196 82.748C246.192 82.667 245.87 82.449 246.363 80.155C246.494 79.547 246.785 78.091 247.011 76.92C247.237 75.749 247.518 74.605 247.636 74.377C247.754 74.15 247.971 73.118 248.119 72.084C248.266 71.05 248.528 69.904 248.701 69.536C248.875 69.168 249.157 68.073 249.329 67.103C250.159 62.41 251.397 62.305 251.869 66.888ZM24.363 65.489C24.45 66.015 24.68 67.291 24.873 68.325C25.066 69.359 25.317 71.05 25.429 72.084C25.542 73.118 25.791 74.511 25.982 75.18C26.439 76.779 26.577 81.667 26.176 82.072C25.674 82.578 19.895 82.624 19.397 82.126C18.894 81.624 19.065 79.1 19.737 77.104C19.978 76.391 20.276 74.996 20.4 74.006C20.524 73.016 20.764 71.905 20.933 71.537C21.102 71.169 21.356 70.022 21.497 68.988C21.638 67.955 21.873 66.91 22.018 66.667C22.164 66.423 22.412 65.777 22.57 65.229C23.12 63.32 24.022 63.451 24.363 65.489ZM56.16 69.722C56.249 70.493 55.821 71.086 55.418 70.751C54.979 70.387 54.801 69.392 55.136 69.175C55.645 68.848 56.087 69.084 56.16 69.722ZM188.648 83.94C188.648 83.986 188.325 84.023 187.93 84.021C187.441 84.019 187.307 83.957 187.512 83.827C187.786 83.653 188.648 83.738 188.648 83.94ZM167.642 88.21C168.187 88.369 168.185 88.374 167.481 88.536C166.613 88.737 165.651 88.502 166.121 88.205C166.473 87.981 166.865 87.983 167.642 88.21ZM54.628 94.72C55.064 95.245 54.374 96.186 53.555 96.186C53.159 96.186 52.833 95.075 53.126 94.722C53.452 94.33 54.304 94.329 54.628 94.72ZM168.969 98.202C168.969 98.309 168.671 98.397 168.306 98.397C167.696 98.397 167.472 98.199 167.758 97.913C167.936 97.734 168.969 97.981 168.969 98.202ZM200.446 127.745C197.792 127.794 196.588 127.897 196.435 128.087C195.842 128.82 194.934 205.357 195.5 206.847C195.778 207.579 211.535 208.08 213.289 207.413L213.856 207.197L213.867 193.206C213.88 178.103 213.992 176.217 214.93 175.278C215.407 174.801 215.548 174.791 223.267 174.682C229.923 174.588 231.151 174.521 231.329 174.24C231.56 173.873 231.629 162.335 231.407 161.222L231.269 160.531H226.356C223.654 160.531 220.06 160.465 218.368 160.384L215.293 160.238L214.574 159.522L213.856 158.806L213.866 152.98C213.881 144.845 214.054 142.917 214.829 142.251L215.428 141.736L226.195 141.733C238.015 141.729 237.873 141.74 238.066 140.859C238.406 139.313 238.356 128.266 238.008 127.977C237.679 127.704 211.374 127.541 200.446 127.745ZM186.147 127.949C186.11 127.986 178.473 128.026 169.177 128.038C150.091 128.064 150.991 128.017 150.71 128.984C150.548 129.542 150.49 137.627 150.609 143.284C150.627 144.165 150.455 161.552 150.083 196.277L149.964 207.368L150.567 207.562C151.768 207.949 166.468 207.725 167.101 207.31C168.11 206.649 168.144 206.282 168.012 197.458C167.892 189.437 167.873 189.155 167.433 188.799C166.821 188.303 166.861 187.478 167.532 186.754L168.085 186.157V181.072C168.085 174.278 168.02 174.392 171.723 174.58C182.555 175.129 184.684 175.165 185.231 174.807L185.774 174.451V168.065V161.68L185.163 161.467C184.827 161.35 183.807 161.3 182.897 161.358C179.985 161.54 169.806 161.023 168.905 160.646C167.788 160.18 167.767 159.958 167.997 150.658C168.176 143.411 168.233 142.597 168.59 142.241C168.957 141.874 169.788 141.842 180.42 141.789C191.731 141.732 191.859 141.726 192.242 141.267C192.65 140.777 192.849 128.926 192.459 128.332C192.317 128.114 186.343 127.752 186.147 127.949ZM242.973 128.089C242.435 128.495 242.404 130.041 242.277 162.852C242.214 179.27 242.099 195.544 242.023 199.016C241.862 206.296 241.931 207.046 242.783 207.374C243.414 207.617 261.066 207.707 275.54 207.541L283.604 207.449L284.068 206.868C284.815 205.93 284.852 195.183 284.11 194.723C283.635 194.43 281.696 194.338 264.628 193.806C261.109 193.696 260.53 193.487 260.483 192.311C260.425 190.823 260.566 182.836 260.709 179.576C260.856 176.218 260.865 176.173 261.471 175.652L262.084 175.124H268.873H275.662L276.25 174.579L276.838 174.034L276.858 168.363C276.869 165.244 276.928 162.479 276.989 162.219C277.251 161.098 277.215 161.093 269.377 161.043C261.641 160.995 261.181 160.933 260.854 159.901C260.481 158.728 260.63 142.85 261.016 142.463C261.382 142.096 262.246 142.059 272.883 141.957C279.193 141.896 284.438 141.763 284.54 141.662C284.767 141.434 284.843 135.634 284.675 131.398L284.549 128.247L283.742 128.03C282.475 127.689 243.428 127.745 242.973 128.089ZM288.587 128.144C288.263 128.535 288.24 129.59 287.951 156.993C287.698 181.099 287.644 206.149 287.844 206.895C288.054 207.677 287.908 207.672 308.162 207.643C329.72 207.613 328.93 207.649 329.265 206.689C329.631 205.637 329.581 194.925 329.207 194.615C329.016 194.456 326.59 194.335 322.187 194.264C318.486 194.204 313.44 194.088 310.972 194.006C305.239 193.815 305.68 194.244 305.871 189.041C305.949 186.92 306.023 183.334 306.037 181.072C306.075 174.666 305.443 175.124 314.241 175.124C320.78 175.124 320.858 175.119 321.423 174.627L321.994 174.129L322.096 168.428C322.152 165.293 322.258 162.489 322.331 162.198C322.596 161.142 321.882 161.025 314.459 160.906C307.564 160.796 306.723 160.691 306.296 159.892C306.039 159.412 305.955 144.533 306.203 143.296C306.48 141.907 306.228 141.937 318.594 141.82C325.653 141.754 329.913 141.632 330.052 141.493C330.285 141.26 330.473 130.687 330.266 129.433C330.185 128.935 329.982 128.674 329.55 128.511C328.443 128.091 313.704 127.793 304.182 127.996C302.114 128.041 297.819 128.021 294.635 127.954C289.797 127.85 288.805 127.882 288.587 128.144ZM119.611 128.253C118.672 128.359 117.726 128.54 117.51 128.654C117.294 128.768 116.536 128.981 115.827 129.127C115.117 129.273 114.183 129.632 113.75 129.926C113.318 130.219 112.795 130.459 112.588 130.459C112.38 130.459 112.033 130.655 111.816 130.895C111.598 131.136 111.224 131.394 110.985 131.47C108.397 132.292 104.116 136.693 102.183 140.52C100.043 144.755 99.798 147.741 99.805 169.486C99.808 177.877 99.799 185.075 99.784 185.481C99.769 185.887 99.952 187.031 100.19 188.024C100.429 189.016 100.732 190.514 100.864 191.352C100.996 192.19 101.252 193.086 101.433 193.342C101.613 193.599 101.866 194.2 101.996 194.678C102.125 195.156 102.471 195.901 102.764 196.333C103.057 196.764 103.297 197.244 103.297 197.398C103.297 197.552 103.388 197.678 103.499 197.678C103.61 197.678 103.906 198.101 104.158 198.618C104.915 200.175 108.006 203.181 110.637 204.919C112.605 206.219 112.606 206.219 114.795 206.519C115.708 206.644 117.101 206.907 117.891 207.102C120.246 207.684 125.948 207.621 128.062 206.99C130.449 206.278 133.137 205.236 134.033 204.675C134.458 204.408 134.969 204.093 135.168 203.975C137.76 202.427 140.338 200.008 142.936 196.683C143.496 195.968 144.867 192.823 144.867 192.257C144.867 192.067 145.058 191.538 145.291 191.081C146.473 188.765 147.478 169.589 146.515 167.733C146.255 167.231 146.254 166.996 146.506 166.212C146.727 165.523 146.813 163.431 146.84 158.06C146.883 149.531 146.411 145.58 144.952 142.255C144.784 141.872 144.646 141.354 144.646 141.105C144.646 140.856 144.508 140.573 144.338 140.475C144.169 140.378 143.872 139.95 143.678 139.525C143.484 139.099 142.977 138.303 142.55 137.756C142.123 137.208 141.683 136.555 141.573 136.305C141.248 135.567 137.529 131.873 136.686 131.45C136.26 131.237 135.833 130.926 135.735 130.761C135.638 130.595 135.372 130.459 135.144 130.459C134.916 130.459 134.439 130.214 134.083 129.914C133.727 129.615 132.967 129.265 132.394 129.136C131.82 129.008 131.096 128.736 130.785 128.532C130.12 128.096 122.631 127.909 119.611 128.253ZM68.834 128.582C68.425 128.763 67.439 129.014 66.643 129.142C65.847 129.269 64.938 129.554 64.622 129.776C64.307 129.998 63.8 130.254 63.496 130.345C63.192 130.437 62.791 130.645 62.604 130.808C62.417 130.972 61.914 131.252 61.486 131.43C60.237 131.952 56.569 135.363 54.804 137.645C53.729 139.035 51.884 143.404 51.662 145.088C51.592 145.616 51.491 146.327 51.438 146.669C51.365 147.137 51.489 147.428 51.944 147.849L52.548 148.409L51.788 149.088L51.028 149.766L50.871 152.329C50.567 157.283 50.682 176.889 51.022 178.085C51.292 179.036 51.286 179.316 50.969 180.406C50.51 181.985 50.671 188.576 51.224 190.824C51.418 191.614 51.685 192.709 51.817 193.256C51.949 193.803 52.228 194.555 52.437 194.927C52.646 195.299 52.884 195.957 52.965 196.389C53.046 196.822 53.31 197.354 53.55 197.572C53.791 197.79 53.988 198.08 53.988 198.216C53.988 198.841 57.38 202.536 58.975 203.648C59.411 203.952 60.035 204.411 60.361 204.667C61.391 205.478 63.136 206.302 63.826 206.304C64.192 206.305 65.039 206.567 65.708 206.886C67.878 207.921 78.779 207.987 80.665 206.976C81.13 206.727 81.654 206.523 81.828 206.523C82.58 206.523 85.772 204.866 87.482 203.588C88.28 202.992 91.355 199.842 91.356 199.621C91.357 199.534 91.631 199.169 91.965 198.811C93.078 197.619 93.568 196.98 93.57 196.72C93.571 196.578 93.817 195.965 94.116 195.357C94.415 194.748 94.663 194.101 94.667 193.919C94.671 193.736 94.921 192.592 95.224 191.376C95.925 188.558 96.005 185.264 95.382 184.811C94.924 184.477 94.011 183.046 94.011 182.66C94.011 182.516 94.347 182.258 94.758 182.086C95.886 181.615 96.305 176.347 95.289 175.415C94.79 174.959 81.642 174.469 81.007 174.884C80.898 174.955 80.75 177.999 80.679 181.647C80.531 189.285 80.431 189.794 78.753 191.438C75.762 194.37 70.783 193.746 69.453 190.271C69.313 189.906 69.022 189.16 68.805 188.612C67.982 186.533 68.084 154.826 68.932 149.033C69.76 143.378 75.386 140.757 78.738 144.465C80.546 146.465 80.594 146.639 80.731 151.731C80.816 154.879 80.938 156.392 81.122 156.576C81.67 157.122 94.116 157.459 95.216 156.957C95.895 156.648 96.037 153.02 95.468 150.515C95.296 149.761 95.051 148.198 94.921 147.043C94.792 145.887 94.435 144.104 94.127 143.079C93.82 142.054 93.568 141.073 93.568 140.9C93.568 140.726 93.32 140.288 93.015 139.927C92.711 139.565 92.463 139.145 92.463 138.993C92.463 138.841 92.214 138.484 91.91 138.198C91.606 137.912 91.357 137.586 91.357 137.472C91.357 137.358 91.168 137.052 90.936 136.792C90.097 135.849 88.949 134.533 88.288 133.754C87.728 133.096 85.143 131.14 84.202 130.662C82.364 129.73 81.592 129.456 79.417 128.96C76.246 128.238 70.111 128.019 68.834 128.582ZM173.902 129.887C174.115 130.528 173.879 130.904 173.084 131.196C172.637 131.361 173.284 132.103 174.079 132.338C175.53 132.767 175.927 133.757 174.846 134.25C174.551 134.385 174.255 134.711 174.189 134.976C173.849 136.329 171.087 137.213 170.561 136.136C170.189 135.374 169.172 135.452 167.383 136.38C164.439 137.908 161.833 136.743 163.571 134.677C164.01 134.156 164.325 133.997 164.919 133.997C165.509 133.997 165.721 133.891 165.81 133.552C165.874 133.307 166.168 133.047 166.463 132.973C166.831 132.88 167.041 132.635 167.129 132.196C167.325 131.217 168.782 130.908 169.626 131.667C169.915 131.927 170.04 131.909 170.488 131.545C170.776 131.311 171.398 131.057 171.87 130.982C172.81 130.831 172.997 130.397 172.286 130.017C171.467 129.578 171.74 129.099 172.766 129.175C173.563 129.233 173.718 129.331 173.902 129.887ZM201.709 129.981C201.531 130.649 200.966 130.773 200.849 130.17C200.725 129.524 200.967 129.157 201.435 129.279C201.782 129.37 201.836 129.507 201.709 129.981ZM165.122 130.063L165.834 130.551L165.149 131.057C164.291 131.69 163.591 131.358 163.482 130.268C163.396 129.4 164.037 129.32 165.122 130.063ZM161.767 133.017C162.255 133.506 162.199 134.355 161.653 134.737C161.275 135.002 161.235 135.141 161.432 135.509C162.142 136.836 161.56 138.306 160.443 138.009C159.516 137.763 159.469 137.027 160.329 136.223C161.087 135.515 161.161 135.167 160.684 134.536C159.841 133.421 160.81 132.061 161.767 133.017ZM157.158 134.844C156.965 136.31 156.397 136.594 154.976 135.931C153.902 135.431 153.951 134.846 155.109 134.356C155.496 134.192 156.008 133.838 156.247 133.57C156.878 132.862 157.335 133.501 157.158 134.844ZM301.415 134.507C301.41 135.411 301.1 135.966 300.896 135.434C300.713 134.959 300.714 133.89 300.896 133.708C301.172 133.432 301.418 133.811 301.415 134.507ZM62.474 134.836C62.668 135.151 62.285 135.531 61.97 135.336C61.805 135.235 61.739 135.041 61.823 134.906C62 134.619 62.318 134.585 62.474 134.836ZM176.376 137.67C176.376 138.824 175.59 139.022 175.063 138.001C174.641 137.186 174.641 137.201 175.056 136.786C175.662 136.18 176.376 136.658 176.376 137.67ZM163.708 140.894C163.509 141.093 163.377 141.097 163.191 140.91C163.053 140.773 163.007 140.486 163.088 140.274C163.227 139.914 163.261 139.913 163.606 140.258C163.894 140.546 163.917 140.685 163.708 140.894ZM143.541 141.623C143.541 141.966 142.33 142.497 142.006 142.297C141.709 142.113 141.705 141.67 141.998 141.377C142.302 141.073 143.541 141.271 143.541 141.623ZM158.024 142.929C158.024 143.301 156.753 143.344 156.267 142.988C155.854 142.686 155.852 142.651 156.223 142.084L156.61 141.495L157.317 142.09C157.706 142.417 158.024 142.795 158.024 142.929ZM126.034 142.571C127.944 143.513 129.641 146.408 129.397 148.309C129.322 148.894 129.323 153.599 129.399 158.766C129.496 165.278 129.451 169.719 129.255 173.245C129.099 176.042 128.966 180.026 128.959 182.098C128.937 188.71 128.699 189.698 126.642 191.701C123.894 194.377 119.372 193.179 117.593 189.303C117.126 188.284 117.124 188.209 117.121 167.275L117.117 146.269L117.756 145.053C118.644 143.364 119.946 142.234 121.208 142.06C121.755 141.984 122.302 141.885 122.424 141.84C122.967 141.637 124.96 142.041 126.034 142.571ZM144.536 153.539C144.934 153.829 144.936 153.871 144.574 154.423C144.09 155.161 143.257 155.195 142.936 154.491C142.466 153.459 143.548 152.816 144.536 153.539ZM144.646 157.103C144.646 157.286 144.547 157.435 144.425 157.435C144.303 157.435 144.204 157.286 144.204 157.103C144.204 156.921 144.303 156.772 144.425 156.772C144.547 156.772 144.646 156.921 144.646 157.103ZM356.365 159.816C347.556 159.874 346.59 159.916 346.15 160.261C345.413 160.838 345.292 173.446 346.014 174.413L346.463 175.014H356.463H366.463L367.086 174.317C367.755 173.567 368.212 170.334 367.884 168.662C367.806 168.264 367.65 167.043 367.539 165.948C367.427 164.854 367.269 163.737 367.189 163.468C367.108 163.198 367.164 162.471 367.312 161.851C367.589 160.698 367.06 159.537 366.332 159.699C366.202 159.728 361.716 159.781 356.365 159.816ZM16.419 161.501C15.984 162.025 16.01 174.514 16.448 175.476C16.774 176.192 17.15 176.223 26.913 176.332C35.372 176.427 37.163 176.339 37.702 175.8C38.006 175.496 37.937 163.008 37.628 162.194C37.341 161.44 37.56 161.457 26.535 161.326C18.527 161.231 16.616 161.264 16.419 161.501ZM268.49 163.532C268.85 163.858 268.851 163.921 268.507 164.533C268.048 165.349 267.183 165.338 266.764 164.511C266.273 163.542 267.642 162.765 268.49 163.532ZM199.791 179.508C200.021 179.88 199.646 180.652 199.236 180.652C198.921 180.652 198.82 180.491 198.82 179.989C198.82 179.342 199.485 179.013 199.791 179.508ZM61.808 183.588C62.298 183.947 61.552 184.73 60.55 184.908C59.969 185.012 59.934 184.978 60.064 184.439C60.305 183.44 61.084 183.059 61.808 183.588ZM53.851 186.349C53.443 186.995 52.109 186.871 52.109 186.187C52.109 185.351 53.068 184.942 53.654 185.527C53.999 185.872 54.041 186.047 53.851 186.349Z" fill="#2D2D2D"/>
</svg>
